<?xml version="1.0" encoding="iso-8859-1"?>
<!-- Generator: Adobe Illustrator 19.0.0, SVG Export Plug-In . SVG Version: 6.00 Build 0)  -->
<svg xmlns="http://www.w3.org/2000/svg" xmlns:xlink="http://www.w3.org/1999/xlink" version="1.1" id="Capa_1" x="0px" y="0px" viewBox="0 0 512 512" style="enable-background:new 0 0 512 512;" xml:space="preserve" width="512px" height="512px">
<g>
	<g>
		<path d="M508.689,249.33c-0.65-1.309-16.252-32.436-45.132-63.81c-39.241-42.629-84.377-65.161-130.53-65.161    c-7.326,0-14.653,0.451-21.934,1.255c-5.954-5.434-16.21-13.502-30.627-20.284c-21.274-10.009-55.972-18.925-100.463-4.555    l-18.722,6.046l36.816,56.171c-1.643,0.861-3.264,1.719-4.837,2.568c-28.471,15.369-55.285,33.986-74.322,51.197    c-16.24-34.197-51.111-57.899-91.417-57.899c-4.591,0-9.243,0.318-13.828,0.946l-11.428,1.565l-1.425,11.446    C0.283,173.301,0,177.865,0,182.383c0,27.632,10.268,53.672,28.631,73.621C10.268,275.954,0,301.992,0,329.625    c0,4.511,0.283,9.072,0.839,13.556l1.423,11.449l11.431,1.564c4.585,0.627,9.238,0.946,13.829,0.946    c40.307,0,75.177-23.703,91.417-57.899c19.037,17.211,45.851,35.829,74.322,51.197c1.572,0.849,3.194,1.707,4.837,2.568    l-36.816,56.171l18.722,6.046c16.724,5.401,32.062,7.512,45.826,7.512c22.852,0,41.36-5.821,54.637-12.067    c14.417-6.782,24.673-14.85,30.627-20.284c7.281,0.804,14.608,1.255,21.934,1.255c46.153,0,91.289-22.532,130.53-65.161    c28.88-31.373,44.482-62.5,45.132-63.81L512,256L508.689,249.33z M30.046,327.091c0.733-23.269,11.534-44.779,29.889-59.33    l14.83-11.756l-14.83-11.756c-18.358-14.553-29.159-36.065-29.889-59.337c38.058,1.334,68.611,32.712,68.611,71.09    S68.104,325.756,30.046,327.091z M270.349,129.688c-15.922,4.465-31.102,10.153-44.964,16.201l-16.571-25.283    C235.19,116.462,255.903,122.379,270.349,129.688z M208.814,391.393l16.57-25.282c13.863,6.048,29.043,11.736,44.966,16.201    C255.907,389.622,235.193,395.538,208.814,391.393z M333.028,361.637c-36.02-0.001-80.595-13.355-125.513-37.601    c-37.209-20.086-65.547-42.568-79.364-57.847c0.337-3.351,0.511-6.748,0.511-10.187c0-3.439-0.174-6.836-0.511-10.187    c13.816-15.279,42.153-37.761,79.364-57.847c44.918-24.248,89.493-37.601,125.513-37.601c9.446,0,18.515,1.19,27.192,3.31    c-20.316,29.81-31.326,65.411-31.326,102.326s11.009,72.516,31.326,102.326C351.542,360.446,342.474,361.637,333.028,361.637z     M389.236,347.313C369.606,321.339,358.9,289.328,358.9,256c0-33.329,10.706-65.34,30.337-91.313    c47.258,24.487,78.651,73.487,88.913,91.312C467.877,273.84,436.486,322.83,389.236,347.313z" fill="#FFFFFF"/>
	</g>
</g>
<g>
	<g>
		<rect x="390.147" y="219.193" width="30.006" height="30.006" fill="#FFFFFF"/>
	</g>
</g>
<g>
</g>
<g>
</g>
<g>
</g>
<g>
</g>
<g>
</g>
<g>
</g>
<g>
</g>
<g>
</g>
<g>
</g>
<g>
</g>
<g>
</g>
<g>
</g>
<g>
</g>
<g>
</g>
<g>
</g>
</svg>
