<?xml version="1.0" encoding="UTF-8" ?>
<!DOCTYPE svg PUBLIC "-//W3C//DTD SVG 1.1//EN" "http://www.w3.org/Graphics/SVG/1.1/DTD/svg11.dtd">
<svg width="168pt" height="206pt" viewBox="0 0 168 206" version="1.1" xmlns="http://www.w3.org/2000/svg">
<g id="#ffffffff">
<path fill="#ffffff" opacity="1.00" d=" M 77.69 0.00 L 82.20 0.00 C 88.46 1.47 94.63 3.56 100.99 4.41 C 109.99 3.09 119.00 1.76 127.93 0.00 L 133.33 0.00 C 134.93 5.34 133.67 10.99 133.15 16.41 C 131.72 19.10 129.26 21.07 127.57 23.59 C 121.65 32.39 116.54 41.75 110.07 50.17 C 115.30 48.77 120.42 46.22 125.98 46.85 C 138.07 47.56 150.21 47.79 162.27 48.80 C 164.53 50.84 165.02 54.06 166.24 56.73 C 167.71 59.99 167.79 63.88 166.07 67.06 C 161.61 76.64 157.41 86.35 152.87 95.90 C 148.85 102.94 144.53 109.80 140.35 116.74 C 141.84 117.90 143.31 119.08 144.79 120.27 C 144.78 121.82 144.77 123.37 144.78 124.93 C 142.12 126.81 139.27 128.45 136.15 129.41 C 138.26 129.38 140.40 129.61 142.22 130.79 C 148.74 134.31 155.60 137.19 161.87 141.15 C 162.70 147.28 157.05 151.11 154.15 155.81 C 155.73 158.83 156.86 162.08 156.70 165.54 C 147.37 173.92 137.96 182.24 128.38 190.34 C 124.38 191.26 120.20 190.13 116.16 189.83 C 115.56 191.52 115.58 193.86 113.68 194.71 C 109.80 196.64 105.92 198.63 101.85 200.11 C 98.33 201.17 95.27 199.05 92.51 197.19 C 92.54 199.63 92.54 202.09 92.46 204.54 C 90.52 204.54 88.57 204.68 86.65 204.37 C 83.13 201.78 80.08 198.61 76.70 195.85 C 76.81 198.76 76.87 201.68 76.67 204.59 C 74.82 204.71 72.96 204.78 71.11 204.85 C 68.49 200.77 65.61 196.84 63.28 192.58 C 62.84 189.42 63.27 186.20 63.96 183.11 C 64.33 180.49 67.60 179.99 68.58 177.66 C 72.33 171.17 76.50 164.91 79.71 158.13 C 76.96 155.46 74.23 152.76 71.88 149.73 C 73.12 152.66 74.28 155.76 73.49 158.99 C 72.97 161.05 73.50 164.49 70.74 164.96 C 67.73 165.93 64.54 165.13 61.63 164.19 C 61.12 166.44 61.87 169.47 59.62 170.90 C 55.31 171.87 50.76 172.62 46.42 171.40 C 46.01 161.33 52.36 152.31 51.89 142.26 C 50.72 142.97 49.55 143.68 48.38 144.38 C 48.41 146.57 48.43 148.76 48.44 150.95 C 43.84 153.48 39.26 156.91 33.71 156.44 C 33.26 154.69 32.86 152.92 32.54 151.14 C 31.07 150.85 29.60 150.55 28.15 150.19 C 28.16 146.05 28.18 141.74 29.81 137.88 C 33.53 134.63 39.75 136.05 42.76 131.78 C 46.14 127.75 49.58 123.78 52.92 119.72 C 47.87 120.97 42.87 123.69 37.54 122.67 C 35.99 121.91 34.57 120.92 33.11 120.02 C 33.18 118.07 33.10 116.09 33.52 114.18 C 34.66 113.52 35.84 112.93 37.05 112.39 C 35.96 110.08 35.06 107.69 34.37 105.23 C 30.45 106.45 28.10 110.01 24.76 112.13 C 22.32 112.56 19.86 112.05 17.51 111.43 C 17.47 108.57 16.89 105.56 17.87 102.80 C 20.09 101.87 22.52 101.60 24.78 100.77 C 27.54 99.22 29.35 96.36 32.16 94.89 C 33.87 94.56 35.61 94.54 37.34 94.40 C 37.94 96.51 38.48 98.64 39.17 100.72 C 38.90 98.41 38.52 96.12 38.29 93.81 C 41.42 92.77 44.68 92.27 47.92 91.77 C 48.98 89.05 50.03 86.33 51.06 83.60 C 49.57 83.52 48.08 83.45 46.59 83.35 C 45.32 85.10 44.03 86.84 42.75 88.59 C 40.21 88.47 37.06 89.07 35.58 86.44 C 33.43 84.72 33.47 81.85 33.91 79.39 C 35.38 77.84 37.14 76.64 38.89 75.45 C 34.78 70.98 30.72 66.43 26.88 61.73 C 25.30 56.83 28.92 52.60 31.13 48.58 C 33.32 48.64 35.52 48.75 37.70 48.94 C 38.42 47.35 39.16 45.76 39.92 44.18 C 41.85 44.39 44.01 43.83 45.79 44.76 C 47.27 46.42 48.88 48.14 49.62 50.27 C 50.17 54.76 48.52 59.44 50.41 63.74 C 51.73 55.65 51.75 47.41 53.01 39.31 C 55.73 35.96 61.00 36.64 64.09 33.97 C 69.02 22.82 72.35 10.97 77.69 0.00 M 67.73 34.74 C 67.23 35.82 66.98 37.37 65.58 37.63 C 62.37 38.81 59.11 39.82 55.89 40.97 C 55.29 47.65 54.62 54.33 54.05 61.02 C 53.68 64.03 55.66 66.62 56.61 69.35 C 54.90 69.88 53.20 70.41 51.49 70.92 C 49.78 68.15 47.83 65.52 46.25 62.67 C 46.04 59.10 46.75 55.54 46.65 51.98 C 45.54 50.02 44.07 48.30 42.73 46.51 C 41.20 49.74 39.77 53.01 38.26 56.25 C 36.71 54.60 35.16 52.94 33.61 51.29 C 32.16 53.91 30.76 56.56 29.34 59.20 C 33.97 64.50 38.52 69.88 43.22 75.11 C 46.03 75.43 48.84 74.63 51.65 74.49 C 50.40 76.62 49.08 78.70 47.95 80.89 C 51.66 78.45 55.07 75.59 58.78 73.15 C 56.19 80.37 53.30 87.48 50.60 94.66 C 47.39 95.20 44.17 95.73 40.96 96.25 C 42.28 97.40 43.61 98.53 44.94 99.67 C 42.54 101.56 40.15 103.47 37.74 105.36 C 39.17 108.43 40.66 111.47 42.08 114.55 C 40.15 115.21 38.20 115.80 36.30 116.54 C 35.66 118.57 38.74 119.06 40.07 119.88 C 45.67 118.42 51.17 116.60 56.73 114.97 C 57.02 112.55 56.98 110.06 57.66 107.72 C 61.32 104.33 65.24 101.25 69.03 98.02 C 64.65 105.94 60.24 113.85 55.75 121.72 C 52.57 126.15 48.71 130.04 45.31 134.30 C 42.51 138.51 36.84 138.17 32.56 139.86 C 31.98 142.64 31.41 145.43 30.91 148.23 C 33.14 146.75 35.32 145.20 37.53 143.69 C 36.88 147.03 36.18 150.35 35.57 153.69 C 38.92 152.07 42.20 150.29 45.57 148.69 C 45.17 146.80 44.73 144.92 44.30 143.04 C 46.44 141.30 49.43 140.19 50.45 137.42 C 52.73 132.49 54.87 127.50 57.22 122.61 C 57.46 125.03 57.72 127.46 58.33 129.82 C 56.70 132.47 54.77 134.99 53.63 137.89 C 54.13 141.05 56.52 144.12 55.33 147.38 C 53.33 154.64 51.28 161.88 49.35 169.16 C 52.22 168.80 55.10 168.40 57.97 168.00 C 58.77 161.09 59.58 154.18 60.37 147.27 C 62.19 146.38 63.93 145.27 65.88 144.70 C 68.11 145.51 70.24 146.57 72.41 147.52 C 73.42 142.48 74.74 137.38 77.87 133.19 C 78.51 138.74 76.77 144.16 76.15 149.63 C 78.73 152.16 81.30 154.69 83.89 157.21 C 80.44 166.14 74.62 173.84 70.14 182.24 C 70.33 184.60 72.17 186.58 72.72 188.91 C 69.48 188.65 69.00 184.99 67.37 182.80 C 66.96 185.39 66.24 187.95 66.20 190.58 C 68.68 194.67 71.28 198.70 74.03 202.63 C 73.83 199.79 73.25 196.99 73.12 194.16 C 73.73 192.65 75.61 192.16 76.79 191.14 C 81.04 194.82 85.20 198.62 89.53 202.21 C 89.53 198.40 89.38 194.59 89.32 190.79 C 92.90 192.84 96.12 195.58 99.90 197.25 C 104.16 195.41 108.29 193.29 112.53 191.41 C 112.60 189.67 112.66 187.94 112.73 186.21 C 117.20 186.71 121.66 187.22 126.13 187.71 C 135.17 179.74 144.29 171.86 153.31 163.87 C 153.24 160.89 150.95 158.20 149.99 155.32 C 153.03 151.35 156.02 147.34 159.01 143.32 C 151.63 139.61 144.26 135.87 136.89 132.13 C 134.50 134.24 132.22 136.47 129.77 138.52 C 125.69 137.97 121.75 136.63 117.75 135.71 C 125.86 131.31 134.02 127.00 142.16 122.64 C 139.97 121.00 137.76 119.39 135.56 117.78 C 140.28 109.79 145.24 101.94 149.88 93.91 C 154.84 83.32 159.56 72.60 164.45 61.97 C 163.13 58.52 161.78 55.08 160.44 51.64 C 148.96 51.06 137.47 50.53 125.99 49.93 C 124.38 49.82 122.75 49.84 121.21 50.38 C 114.46 52.40 107.77 54.60 100.99 56.51 C 105.36 50.07 110.48 44.15 114.47 37.45 C 119.42 29.84 123.74 21.77 129.89 15.04 C 131.03 11.20 130.65 6.98 131.17 3.00 C 120.80 4.56 110.48 6.45 100.09 7.84 C 93.33 6.58 86.74 4.49 80.00 3.07 C 75.60 13.49 71.85 24.20 67.73 34.74 M 36.36 81.90 C 37.61 83.27 38.86 84.64 40.12 86.00 C 41.16 84.64 42.20 83.28 43.23 81.91 C 42.12 80.93 41.00 79.95 39.89 78.96 C 38.71 79.94 37.53 80.92 36.36 81.90 M 27.84 103.38 C 29.39 103.19 30.98 103.12 32.47 102.61 C 33.93 100.94 35.09 99.06 36.25 97.18 C 32.68 97.99 30.31 100.93 27.84 103.38 M 20.35 105.39 C 20.37 106.64 20.40 107.89 20.43 109.15 C 22.98 109.68 24.72 107.70 26.51 106.25 C 27.26 105.87 28.82 104.39 27.24 103.95 C 24.91 104.07 22.66 104.99 20.35 105.39 M 62.18 152.83 C 62.91 155.76 63.00 158.86 64.43 161.58 C 66.13 162.05 67.89 162.25 69.65 162.08 C 70.81 157.11 70.69 150.66 65.93 147.62 C 64.14 148.85 62.00 150.38 62.18 152.83 Z" />
<path fill="#ffffff" opacity="1.00" d=" M 44.41 4.29 C 46.35 3.97 48.33 4.29 50.26 4.55 C 50.84 8.92 51.83 13.36 51.19 17.79 C 49.66 20.06 47.70 22.02 46.28 24.37 C 45.42 27.71 45.33 31.20 44.48 34.54 C 41.16 37.92 37.09 40.43 33.45 43.44 C 30.87 45.25 28.64 47.95 25.31 48.25 C 24.27 57.19 21.24 65.77 19.43 74.58 C 19.08 78.14 16.27 80.52 14.17 83.14 C 11.74 86.02 9.38 88.95 6.82 91.72 C 5.02 91.66 3.21 91.62 1.41 91.53 C 0.52 84.94 4.19 78.91 7.72 73.66 C 7.56 67.46 8.64 61.37 10.03 55.33 C 8.87 54.23 7.71 53.12 6.57 52.01 C 6.29 49.08 6.63 46.19 9.01 44.20 C 10.63 44.18 12.26 44.23 13.88 44.08 C 15.54 43.04 17.03 41.76 18.61 40.61 C 19.21 38.94 20.07 37.40 21.19 36.02 C 20.55 35.07 20.00 34.08 19.53 33.04 C 19.39 28.37 20.58 23.79 21.27 19.20 C 21.38 17.34 23.24 16.48 24.60 15.58 C 31.22 11.86 37.75 7.95 44.41 4.29 M 24.74 19.76 C 23.51 23.73 23.31 27.97 22.49 32.05 C 24.10 33.12 25.72 34.18 27.34 35.25 C 25.51 37.10 23.66 38.93 21.83 40.77 C 23.00 42.22 24.16 43.68 25.32 45.13 C 30.76 41.00 36.13 36.79 41.56 32.64 C 42.17 29.23 42.47 25.75 43.28 22.38 C 44.71 19.75 47.25 17.82 48.39 15.06 C 48.16 12.27 47.67 9.51 47.31 6.74 C 39.79 11.08 32.17 15.27 24.74 19.76 M 19.51 44.01 C 17.82 45.91 15.83 47.75 13.06 47.18 C 11.13 46.65 10.27 48.42 9.29 49.68 C 10.73 51.10 12.20 52.50 13.67 53.90 C 12.52 60.86 10.12 67.75 11.22 74.87 C 8.09 79.21 5.65 83.99 4.17 89.15 C 7.38 86.01 10.02 82.36 12.98 79.00 C 14.17 77.50 15.70 76.10 16.03 74.13 C 18.11 65.49 20.30 56.87 22.30 48.22 C 21.36 46.82 20.43 45.42 19.51 44.01 Z" />
</g>
</svg>
